<svg version="1.1" id="Layer_1" xmlns="http://www.w3.org/2000/svg" xmlns:xlink="http://www.w3.org/1999/xlink" x="0px" y="0px"
	 width="100%" viewBox="0 0 1196 365" enable-background="new 0 0 1196 365" xml:space="preserve">
<path fill="#FFFFFF" opacity="1.000000" stroke="none" 
	d="
M939.000000,366.000000 
	C626.000000,366.000000 313.500000,366.000000 1.000000,366.000000 
	C1.000000,244.333328 1.000000,122.666664 1.000000,1.000000 
	C399.666656,1.000000 798.333313,1.000000 1197.000000,1.000000 
	C1197.000000,122.666664 1197.000000,244.333328 1197.000000,366.000000 
	C1111.166626,366.000000 1025.333374,366.000000 939.000000,366.000000 
M279.000000,175.496643 
	C288.548370,145.587875 298.434601,115.780495 307.458832,85.714401 
	C310.545807,75.429596 312.964905,64.906807 311.239227,53.577072 
	C308.319824,34.410145 297.672333,23.007607 279.812805,16.864416 
	C264.259155,11.514397 248.065094,11.415505 232.038849,10.131397 
	C219.668503,9.140220 207.204453,9.127068 194.779694,9.047204 
	C170.965515,8.894132 147.149628,9.002682 123.494637,9.002682 
	C85.484749,123.044334 47.582329,236.763550 9.507514,351.000000 
	C12.255699,351.000000 14.074487,351.000000 15.893275,351.000000 
	C54.892105,351.000000 93.893509,351.255280 132.888382,350.862366 
	C146.655121,350.723724 160.601746,350.122620 174.121918,347.761200 
	C199.783569,343.279236 220.255539,329.837646 231.722321,306.045898 
	C240.363480,288.116882 247.144882,269.231720 253.879410,250.458389 
	C262.687408,225.905029 270.633209,201.042374 279.000000,175.496643 
M601.949707,229.316544 
	C601.766663,229.594727 601.512451,229.849197 601.410645,230.154480 
	C588.426025,269.098083 575.447083,308.043518 562.506226,347.001617 
	C562.124939,348.149536 562.150513,349.432587 561.939636,351.000000 
	C564.066772,351.000000 565.714294,351.000000 567.361755,351.000000 
	C595.187134,351.000000 623.013062,350.908661 650.837158,351.099548 
	C654.958801,351.127808 656.763855,350.004333 658.083252,345.951294 
	C668.101074,315.178223 678.525391,284.537689 688.608276,253.785477 
	C702.351501,211.869431 716.131714,169.962524 729.380371,127.889328 
	C732.712952,117.306168 735.558594,106.379845 733.102722,94.815186 
	C730.300964,81.621758 722.920654,72.516960 710.392578,68.089989 
	C695.578003,62.855053 680.419250,63.196396 665.554993,67.953247 
	C657.574707,70.507103 649.943787,74.152779 641.918396,77.401634 
	C642.634521,74.709511 643.344971,72.038971 644.153137,69.000854 
	C612.566162,69.000854 581.588928,69.023758 550.611816,68.964798 
	C547.575500,68.959023 547.598572,71.066696 546.932861,73.058632 
	C523.711060,142.541733 500.418976,212.001328 477.198486,281.484863 
	C469.490356,304.550293 461.950012,327.671783 454.256561,350.999268 
	C485.101990,350.999268 515.741272,351.056183 546.378235,350.820129 
	C547.810425,350.809143 549.967957,348.434692 550.535950,346.741150 
	C570.450439,287.359680 590.133484,227.900604 610.065186,168.524963 
	C614.258240,156.034012 619.238403,143.805023 623.952454,131.492294 
	C625.849365,126.537735 629.119690,123.723030 636.053589,125.778419 
	C624.671021,160.113693 613.335510,194.306839 601.949707,229.316544 
M261.994720,279.404053 
	C259.299927,290.616028 258.114990,301.814362 259.876465,313.415588 
	C262.887543,333.247040 274.871033,345.111755 293.039429,350.825531 
	C315.707123,357.954224 339.239441,357.659729 362.427979,354.717682 
	C382.760803,352.137970 401.842926,345.098175 418.473907,332.272827 
	C430.172333,323.251373 440.676910,313.128357 448.912292,300.940918 
	C459.559296,285.184509 465.797791,267.268188 471.895752,249.457886 
	C482.377441,218.843948 492.341766,188.050415 502.272858,157.251541 
	C506.956940,142.725098 509.967499,127.918427 507.021393,112.499046 
	C504.435883,98.967003 497.757172,88.240601 486.664825,79.882141 
	C468.957367,66.539024 448.185791,64.781570 427.379272,64.279709 
	C416.747803,64.023285 405.972076,66.237808 395.392334,68.084610 
	C374.134338,71.795410 355.823761,81.858276 339.702637,95.887817 
	C322.819611,110.580399 312.187164,129.678375 304.181580,150.109039 
	C296.554047,169.574905 289.876892,189.435364 283.395233,209.322235 
	C275.913116,232.278687 269.102234,255.453918 261.994720,279.404053 
M1043.941040,292.456055 
	C1040.331055,295.932312 1036.044922,296.665161 1031.153931,295.669678 
	C1032.107300,291.775909 1032.801758,287.939972 1033.987915,284.262634 
	C1040.314575,264.649170 1046.825317,245.094986 1053.114746,225.469788 
	C1054.248779,221.931183 1056.037354,220.875519 1059.795898,220.896240 
	C1092.448730,221.076187 1125.102905,220.968155 1157.756470,221.052612 
	C1160.795166,221.060471 1162.161499,220.370590 1163.159424,217.103699 
	C1167.860840,201.711121 1173.234985,186.524445 1177.967041,171.140625 
	C1183.412231,153.438660 1187.775391,135.577530 1186.089355,116.703857 
	C1184.711548,101.281685 1177.882935,89.166550 1165.694824,79.998474 
	C1154.418213,71.515953 1141.552612,66.878944 1127.510254,66.062256 
	C1115.614868,65.370445 1103.588745,64.260773 1091.788208,65.278694 
	C1077.167603,66.539879 1063.099976,70.798203 1049.417969,76.658371 
	C1032.713745,83.813019 1018.853943,94.618050 1007.575806,108.286812 
	C994.744263,123.838234 986.358154,142.122742 979.936035,161.252686 
	C970.713867,188.723206 960.956665,216.022781 952.241882,243.652115 
	C945.793762,264.095520 937.544678,284.512817 941.185791,306.658844 
	C942.362305,313.814636 944.641418,321.245850 948.286255,327.453033 
	C959.022156,345.736420 977.440796,351.954102 996.892151,354.755951 
	C1008.448975,356.420654 1020.391724,356.386261 1032.091431,355.778198 
	C1041.906616,355.268066 1051.811768,353.551758 1061.338257,351.069183 
	C1078.002319,346.726532 1092.567871,338.240753 1105.721802,326.967010 
	C1119.822144,314.882019 1131.992188,301.384186 1139.213623,284.174347 
	C1144.684692,271.135864 1149.175293,257.682373 1153.978516,244.368942 
	C1155.975220,238.834702 1157.649902,233.184250 1159.464600,227.606400 
	C1158.387085,227.241669 1158.076782,227.044830 1157.766357,227.044571 
	C1129.111206,227.020126 1100.455811,226.969101 1071.801758,227.136551 
	C1070.515381,227.144073 1068.562988,228.895477 1068.069214,230.252533 
	C1064.545776,239.934677 1061.415771,249.759048 1057.976196,259.472900 
	C1054.063110,270.524048 1051.453613,282.155487 1043.941040,292.456055 
M940.050293,200.683441 
	C947.373352,178.859146 954.806213,157.070541 961.917419,135.177429 
	C963.186951,131.269135 964.724304,129.504196 969.043335,129.899643 
	C973.834045,130.338287 978.711060,130.213425 983.518250,129.875443 
	C985.046997,129.767944 987.380127,128.502182 987.808594,127.243454 
	C993.662048,110.045052 999.245850,92.754845 1005.007019,75.148064 
	C997.336792,75.148064 989.896851,75.148064 982.165894,75.148064 
	C986.854980,60.985992 991.427063,47.177532 996.121216,33.000195 
	C965.013000,33.000195 934.536926,33.038933 904.061279,32.936756 
	C901.198547,32.927162 900.661804,34.467503 899.955139,36.607349 
	C896.118408,48.226067 892.016785,59.759838 888.359619,71.433525 
	C887.493591,74.197983 886.421631,75.114777 883.643616,75.059052 
	C878.844666,74.962799 872.752686,73.497108 869.593628,75.835442 
	C866.379333,78.214645 866.001831,84.476028 864.467773,89.066078 
	C859.951843,102.577995 855.478394,116.104126 850.886902,129.930237 
	C857.066895,129.930237 862.716797,129.930237 868.011963,129.930237 
	C867.643005,132.124771 867.562134,134.266022 866.911560,136.217346 
	C860.804810,154.534943 854.281189,172.719589 848.490051,191.135132 
	C835.794128,231.507492 819.774109,270.831726 810.317932,312.228333 
	C808.363953,320.782349 814.429871,335.485046 821.000122,341.160767 
	C829.656250,348.638428 840.049316,350.396820 850.421631,350.772247 
	C871.383850,351.530945 892.393127,351.047333 913.381409,350.875549 
	C914.602600,350.865540 916.478943,349.305481 916.916809,348.066284 
	C920.509583,337.896790 923.818909,327.627502 927.243958,317.398407 
	C929.577087,310.430176 931.957947,303.477905 934.498352,295.984955 
	C925.933289,295.984955 918.146545,295.984955 909.156433,295.984955 
	C918.539734,263.724670 929.897949,232.810028 940.050293,200.683441 
M804.000000,255.496674 
	C824.666260,193.498505 845.332458,131.500351 866.095520,69.211823 
	C833.332886,69.211823 800.902954,69.211823 768.426697,69.211823 
	C737.173950,162.979172 705.929016,256.723145 674.506897,350.998779 
	C706.679260,350.998779 738.153259,351.031769 769.626221,350.866364 
	C770.767883,350.860382 772.442322,349.114594 772.942017,347.821564 
	C775.147034,342.115845 777.041382,336.288666 778.995667,330.487732 
	C787.323975,305.766174 795.633545,281.038330 804.000000,255.496674 
M779.050293,36.683441 
	C776.155640,45.729027 773.260986,54.774612 770.308838,63.999817 
	C801.949524,63.999817 833.424255,64.038315 864.897949,63.869442 
	C866.261230,63.862133 868.290833,62.225513 868.848877,60.869881 
	C870.744019,56.266022 872.126465,51.450386 873.688477,46.710278 
	C877.790222,34.262875 881.883423,21.812628 886.040405,9.179893 
	C853.099609,9.179893 820.653442,9.179893 788.422729,9.179893 
	C785.398438,18.270357 782.449219,27.135176 779.050293,36.683441 
z"/>
<path fill="#042363" opacity="1.000000" stroke="none" 
	d="
M278.974976,175.904694 
	C270.633209,201.042374 262.687408,225.905029 253.879410,250.458389 
	C247.144882,269.231720 240.363480,288.116882 231.722321,306.045898 
	C220.255539,329.837646 199.783569,343.279236 174.121918,347.761200 
	C160.601746,350.122620 146.655121,350.723724 132.888382,350.862366 
	C93.893509,351.255280 54.892105,351.000000 15.893275,351.000000 
	C14.074487,351.000000 12.255699,351.000000 9.507514,351.000000 
	C47.582329,236.763550 85.484749,123.044334 123.494637,9.002682 
	C147.149628,9.002682 170.965515,8.894132 194.779694,9.047204 
	C207.204453,9.127068 219.668503,9.140220 232.038849,10.131397 
	C248.065094,11.415505 264.259155,11.514397 279.812805,16.864416 
	C297.672333,23.007607 308.319824,34.410145 311.239227,53.577072 
	C312.964905,64.906807 310.545807,75.429596 307.458832,85.714401 
	C298.434601,115.780495 288.548370,145.587875 278.974976,175.904694 
M196.051590,87.677216 
	C196.030746,88.010620 196.081116,88.367775 195.978958,88.674057 
	C177.485596,144.129807 158.978821,199.581055 140.480148,255.035019 
	C137.547089,263.827545 134.648758,272.631714 131.574951,281.911774 
	C136.794128,282.017395 140.725937,280.584167 142.931427,276.747498 
	C145.969391,271.462708 148.877548,265.987946 150.917496,260.265289 
	C158.646576,238.582733 166.211365,216.836411 173.451538,194.986008 
	C185.201813,159.524338 196.651672,123.963135 208.219955,88.441200 
	C211.073227,79.679825 209.767303,77.878517 200.295456,78.037193 
	C199.983170,78.042427 199.673706,78.215858 199.366608,78.322090 
	C198.413269,81.212761 197.459915,84.103432 196.051590,87.677216 
z"/>
<path fill="#042363" opacity="1.000000" stroke="none" 
	d="
M601.974854,228.908264 
	C613.335510,194.306839 624.671021,160.113693 636.053589,125.778419 
	C629.119690,123.723030 625.849365,126.537735 623.952454,131.492294 
	C619.238403,143.805023 614.258240,156.034012 610.065186,168.524963 
	C590.133484,227.900604 570.450439,287.359680 550.535950,346.741150 
	C549.967957,348.434692 547.810425,350.809143 546.378235,350.820129 
	C515.741272,351.056183 485.101990,350.999268 454.256561,350.999268 
	C461.950012,327.671783 469.490356,304.550293 477.198486,281.484863 
	C500.418976,212.001328 523.711060,142.541733 546.932861,73.058632 
	C547.598572,71.066696 547.575500,68.959023 550.611816,68.964798 
	C581.588928,69.023758 612.566162,69.000854 644.153137,69.000854 
	C643.344971,72.038971 642.634521,74.709511 641.918396,77.401634 
	C649.943787,74.152779 657.574707,70.507103 665.554993,67.953247 
	C680.419250,63.196396 695.578003,62.855053 710.392578,68.089989 
	C722.920654,72.516960 730.300964,81.621758 733.102722,94.815186 
	C735.558594,106.379845 732.712952,117.306168 729.380371,127.889328 
	C716.131714,169.962524 702.351501,211.869431 688.608276,253.785477 
	C678.525391,284.537689 668.101074,315.178223 658.083252,345.951294 
	C656.763855,350.004333 654.958801,351.127808 650.837158,351.099548 
	C623.013062,350.908661 595.187134,351.000000 567.361755,351.000000 
	C565.714294,351.000000 564.066772,351.000000 561.939636,351.000000 
	C562.150513,349.432587 562.124939,348.149536 562.506226,347.001617 
	C575.447083,308.043518 588.426025,269.098083 601.410645,230.154480 
	C601.512451,229.849197 601.766663,229.594727 601.974854,228.908264 
z"/>
<path fill="#042363" opacity="1.000000" stroke="none" 
	d="
M261.997314,278.969116 
	C269.102234,255.453918 275.913116,232.278687 283.395233,209.322235 
	C289.876892,189.435364 296.554047,169.574905 304.181580,150.109039 
	C312.187164,129.678375 322.819611,110.580399 339.702637,95.887817 
	C355.823761,81.858276 374.134338,71.795410 395.392334,68.084610 
	C405.972076,66.237808 416.747803,64.023285 427.379272,64.279709 
	C448.185791,64.781570 468.957367,66.539024 486.664825,79.882141 
	C497.757172,88.240601 504.435883,98.967003 507.021393,112.499046 
	C509.967499,127.918427 506.956940,142.725098 502.272858,157.251541 
	C492.341766,188.050415 482.377441,218.843948 471.895752,249.457886 
	C465.797791,267.268188 459.559296,285.184509 448.912292,300.940918 
	C440.676910,313.128357 430.172333,323.251373 418.473907,332.272827 
	C401.842926,345.098175 382.760803,352.137970 362.427979,354.717682 
	C339.239441,357.659729 315.707123,357.954224 293.039429,350.825531 
	C274.871033,345.111755 262.887543,333.247040 259.876465,313.415588 
	C258.114990,301.814362 259.299927,290.616028 261.997314,278.969116 
M382.949677,232.316559 
	C382.970154,231.984528 382.919556,231.628815 383.021179,231.323807 
	C392.485382,202.913177 402.004791,174.520859 411.404388,146.088882 
	C413.645111,139.311066 415.487793,132.401672 417.504639,125.582977 
	C411.604584,123.899979 408.227051,125.769684 406.227020,130.294464 
	C404.087433,135.135025 401.726868,139.911499 400.029297,144.908432 
	C388.636658,178.444122 377.308014,212.002228 366.141418,245.613785 
	C360.667206,262.091370 355.584778,278.699097 350.287476,295.366028 
	C357.689880,296.554871 360.425385,295.695618 362.707642,289.482208 
	C369.585297,270.757721 375.940857,251.841461 382.949677,232.316559 
z"/>
<path fill="#042363" opacity="1.000000" stroke="none" 
	d="
M1043.988770,292.076202 
	C1051.453613,282.155487 1054.063110,270.524048 1057.976196,259.472900 
	C1061.415771,249.759048 1064.545776,239.934677 1068.069214,230.252533 
	C1068.562988,228.895477 1070.515381,227.144073 1071.801758,227.136551 
	C1100.455811,226.969101 1129.111206,227.020126 1157.766357,227.044571 
	C1158.076782,227.044830 1158.387085,227.241669 1159.464600,227.606400 
	C1157.649902,233.184250 1155.975220,238.834702 1153.978516,244.368942 
	C1149.175293,257.682373 1144.684692,271.135864 1139.213623,284.174347 
	C1131.992188,301.384186 1119.822144,314.882019 1105.721802,326.967010 
	C1092.567871,338.240753 1078.002319,346.726532 1061.338257,351.069183 
	C1051.811768,353.551758 1041.906616,355.268066 1032.091431,355.778198 
	C1020.391724,356.386261 1008.448975,356.420654 996.892151,354.755951 
	C977.440796,351.954102 959.022156,345.736420 948.286255,327.453033 
	C944.641418,321.245850 942.362305,313.814636 941.185791,306.658844 
	C937.544678,284.512817 945.793762,264.095520 952.241882,243.652115 
	C960.956665,216.022781 970.713867,188.723206 979.936035,161.252686 
	C986.358154,142.122742 994.744263,123.838234 1007.575806,108.286812 
	C1018.853943,94.618050 1032.713745,83.813019 1049.417969,76.658371 
	C1063.099976,70.798203 1077.167603,66.539879 1091.788208,65.278694 
	C1103.588745,64.260773 1115.614868,65.370445 1127.510254,66.062256 
	C1141.552612,66.878944 1154.418213,71.515953 1165.694824,79.998474 
	C1177.882935,89.166550 1184.711548,101.281685 1186.089355,116.703857 
	C1187.775391,135.577530 1183.412231,153.438660 1177.967041,171.140625 
	C1173.234985,186.524445 1167.860840,201.711121 1163.159424,217.103699 
	C1162.161499,220.370590 1160.795166,221.060471 1157.756470,221.052612 
	C1125.102905,220.968155 1092.448730,221.076187 1059.795898,220.896240 
	C1056.037354,220.875519 1054.248779,221.931183 1053.114746,225.469788 
	C1046.825317,245.094986 1040.314575,264.649170 1033.987915,284.262634 
	C1032.801758,287.939972 1032.107300,291.775909 1031.153931,295.669678 
	C1036.044922,296.665161 1040.331055,295.932312 1043.988770,292.076202 
M1084.454468,134.037766 
	C1080.794800,144.124008 1077.135010,154.210251 1073.303589,164.769516 
	C1077.930786,164.769516 1081.694702,164.769516 1085.926392,164.769516 
	C1089.828735,151.806213 1093.769409,138.715652 1097.785645,125.374115 
	C1088.965820,124.686325 1088.965820,124.686325 1084.454468,134.037766 
z"/>
<path fill="#042363" opacity="1.000000" stroke="none" 
	d="
M940.025146,201.091721 
	C929.897949,232.810028 918.539734,263.724670 909.156433,295.984955 
	C918.146545,295.984955 925.933289,295.984955 934.498352,295.984955 
	C931.957947,303.477905 929.577087,310.430176 927.243958,317.398407 
	C923.818909,327.627502 920.509583,337.896790 916.916809,348.066284 
	C916.478943,349.305481 914.602600,350.865540 913.381409,350.875549 
	C892.393127,351.047333 871.383850,351.530945 850.421631,350.772247 
	C840.049316,350.396820 829.656250,348.638428 821.000122,341.160767 
	C814.429871,335.485046 808.363953,320.782349 810.317932,312.228333 
	C819.774109,270.831726 835.794128,231.507492 848.490051,191.135132 
	C854.281189,172.719589 860.804810,154.534943 866.911560,136.217346 
	C867.562134,134.266022 867.643005,132.124771 868.011963,129.930237 
	C862.716797,129.930237 857.066895,129.930237 850.886902,129.930237 
	C855.478394,116.104126 859.951843,102.577995 864.467773,89.066078 
	C866.001831,84.476028 866.379333,78.214645 869.593628,75.835442 
	C872.752686,73.497108 878.844666,74.962799 883.643616,75.059052 
	C886.421631,75.114777 887.493591,74.197983 888.359619,71.433525 
	C892.016785,59.759838 896.118408,48.226067 899.955139,36.607349 
	C900.661804,34.467503 901.198547,32.927162 904.061279,32.936756 
	C934.536926,33.038933 965.013000,33.000195 996.121216,33.000195 
	C991.427063,47.177532 986.854980,60.985992 982.165894,75.148064 
	C989.896851,75.148064 997.336792,75.148064 1005.007019,75.148064 
	C999.245850,92.754845 993.662048,110.045052 987.808594,127.243454 
	C987.380127,128.502182 985.046997,129.767944 983.518250,129.875443 
	C978.711060,130.213425 973.834045,130.338287 969.043335,129.899643 
	C964.724304,129.504196 963.186951,131.269135 961.917419,135.177429 
	C954.806213,157.070541 947.373352,178.859146 940.025146,201.091721 
z"/>
<path fill="#042363" opacity="1.000000" stroke="none" 
	d="
M803.974976,255.904724 
	C795.633545,281.038330 787.323975,305.766174 778.995667,330.487732 
	C777.041382,336.288666 775.147034,342.115845 772.942017,347.821564 
	C772.442322,349.114594 770.767883,350.860382 769.626221,350.866364 
	C738.153259,351.031769 706.679260,350.998779 674.506897,350.998779 
	C705.929016,256.723145 737.173950,162.979172 768.426697,69.211823 
	C800.902954,69.211823 833.332886,69.211823 866.095520,69.211823 
	C845.332458,131.500351 824.666260,193.498505 803.974976,255.904724 
z"/>
<path fill="#042363" opacity="1.000000" stroke="none" 
	d="
M779.275146,36.341717 
	C782.449219,27.135176 785.398438,18.270357 788.422729,9.179893 
	C820.653442,9.179893 853.099609,9.179893 886.040405,9.179893 
	C881.883423,21.812628 877.790222,34.262875 873.688477,46.710278 
	C872.126465,51.450386 870.744019,56.266022 868.848877,60.869881 
	C868.290833,62.225513 866.261230,63.862133 864.897949,63.869442 
	C833.424255,64.038315 801.949524,63.999817 770.308838,63.999817 
	C773.260986,54.774612 776.155640,45.729027 779.275146,36.341717 
z"/>
<path fill="#FFFFFF" opacity="1.000000" stroke="none" 
	d="
M196.279083,87.335655 
	C197.459915,84.103432 198.413269,81.212761 199.364777,78.316483 
	C199.673706,78.215858 199.983170,78.042427 200.295456,78.037193 
	C209.767303,77.878517 211.073227,79.679825 208.219955,88.441200 
	C196.651672,123.963135 185.201813,159.524338 173.451538,194.986008 
	C166.211365,216.836411 158.646576,238.582733 150.917496,260.265289 
	C148.877548,265.987946 145.969391,271.462708 142.931427,276.747498 
	C140.725937,280.584167 136.794128,282.017395 131.574951,281.911774 
	C134.648758,272.631714 137.547089,263.827545 140.480148,255.035019 
	C158.978821,199.581055 177.485596,144.129807 195.978958,88.674057 
	C196.081116,88.367775 196.030746,88.010620 196.279083,87.335655 
z"/>
<path fill="#FFFFFF" opacity="1.000000" stroke="none" 
	d="
M382.724854,232.658279 
	C375.940857,251.841461 369.585297,270.757721 362.707642,289.482208 
	C360.425385,295.695618 357.689880,296.554871 350.287476,295.366028 
	C355.584778,278.699097 360.667206,262.091370 366.141418,245.613785 
	C377.308014,212.002228 388.636658,178.444122 400.029297,144.908432 
	C401.726868,139.911499 404.087433,135.135025 406.227020,130.294464 
	C408.227051,125.769684 411.604584,123.899979 417.504639,125.582977 
	C415.487793,132.401672 413.645111,139.311066 411.404388,146.088882 
	C402.004791,174.520859 392.485382,202.913177 383.021179,231.323807 
	C382.919556,231.628815 382.970154,231.984528 382.724854,232.658279 
z"/>
<path fill="#FFFFFF" opacity="1.000000" stroke="none" 
	d="
M1084.699951,133.737793 
	C1088.965820,124.686325 1088.965820,124.686325 1097.785645,125.374115 
	C1093.769409,138.715652 1089.828735,151.806213 1085.926392,164.769516 
	C1081.694702,164.769516 1077.930786,164.769516 1073.303589,164.769516 
	C1077.135010,154.210251 1080.794800,144.124008 1084.699951,133.737793 
z"/>
</svg>